<?xml version="1.0" encoding="UTF-8"?>
<svg width="16px" height="16px" viewBox="0 0 16 16" version="1.1" xmlns="http://www.w3.org/2000/svg" xmlns:xlink="http://www.w3.org/1999/xlink">
    <!-- Generator: Sketch 53.2 (72643) - https://sketchapp.com -->
    <title>icon page - home</title>
    <desc>Created with Sketch.</desc>
    <defs>
        <path d="M12.9910872,9.41265149 L12.9910872,12.993951 C12.9910872,13.3263396 12.7240242,13.59375 12.3920675,13.59375 L9.49680564,13.59375 C9.33207522,13.59375 9.19729579,13.4587952 9.19729579,13.2938505 L9.19729579,10.4947888 C9.19729579,10.329844 9.06251636,10.1948893 8.89778595,10.1948893 L7.10072688,10.1948893 C6.93599647,10.1948893 6.80121704,10.329844 6.80121704,10.4947888 L6.80121704,13.2938505 C6.80121704,13.4587952 6.66643761,13.59375 6.50170719,13.59375 L3.60644536,13.59375 C3.27448862,13.59375 3.00742567,13.3263396 3.00742567,12.993951 L3.00742567,9.41265149 C3.00742567,9.32268164 3.04736032,9.23771013 3.11724595,9.18022939 L7.80956685,5.31152616 C7.91938712,5.22155632 8.07912571,5.22155632 8.1914419,5.31152616 L12.8837628,9.18022939 C12.9511525,9.23771013 12.9910872,9.32268164 12.9910872,9.41265149 Z M15.0776724,7.89066165 L12.9910872,6.16873883 L12.9910872,2.70739906 C12.9910872,2.54245434 12.8563077,2.40749958 12.6915773,2.40749958 L11.2938647,2.40749958 C11.1291343,2.40749958 10.9943549,2.54245434 10.9943549,2.70739906 L10.9943549,4.52179088 L8.7605106,2.67990827 C8.31873358,2.31503058 7.67977925,2.31503058 7.23800223,2.67990827 L0.920840424,7.89066165 C0.79354874,7.99562647 0.776077332,8.1855628 0.880905778,8.31302008 L1.5173642,9.08776039 C1.62219264,9.21521766 1.81188221,9.2327118 1.93917389,9.12774698 L7.80956685,4.28686962 C7.91938712,4.19689978 8.07912571,4.19689978 8.1914419,4.28686962 L14.0618349,9.12774698 C14.1891265,9.2327118 14.3788161,9.21521766 14.4836445,9.08776039 L15.120103,8.31302008 C15.2249314,8.18306364 15.2049641,7.99562647 15.0776724,7.89066165 L15.0776724,7.89066165 Z" id="path-1"></path>
    </defs>
    <g id="icon-page---home" stroke="none" stroke-width="1" fill="none" fill-rule="evenodd">
        <g id="Solid/home">
            <mask id="mask-2" fill="white">
                <use xlink:href="#path-1"></use>
            </mask>
            <use id="Mask" fill="#000000" fill-rule="nonzero" xlink:href="#path-1"></use>
            <g id="Color/Purple" mask="url(#mask-2)" fill="#515151" fill-rule="evenodd">
                <rect id="Purple" x="0" y="0" width="16" height="16"></rect>
            </g>
        </g>
    </g>
</svg>