<?xml version="1.0" encoding="UTF-8"?>
<svg width="38px" height="51px" viewBox="0 0 38 51" version="1.1" xmlns="http://www.w3.org/2000/svg" xmlns:xlink="http://www.w3.org/1999/xlink">
    <!-- Generator: Sketch 61.2 (89653) - https://sketch.com -->
    <title>icon page - home (big)</title>
    <desc>Created with Sketch.</desc>
    <defs>
        <path d="M30.853832,22.3550473 L30.853832,30.8606337 C30.853832,31.6500566 30.2195575,32.2851562 29.4311602,32.2851562 L22.5549134,32.2851562 C22.1636787,32.2851562 21.8435775,31.9646387 21.8435775,31.572895 L21.8435775,24.9251233 C21.8435775,24.5333796 21.5234764,24.212862 21.1322416,24.212862 L16.8642263,24.212862 C16.4729916,24.212862 16.1528905,24.5333796 16.1528905,24.9251233 L16.1528905,31.572895 C16.1528905,31.9646387 15.8327893,32.2851562 15.4415546,32.2851562 L8.56530774,32.2851562 C7.77691047,32.2851562 7.14263597,31.6500566 7.14263597,30.8606337 L7.14263597,22.3550473 C7.14263597,22.1413689 7.23748076,21.9395615 7.40345913,21.8030448 L18.5477213,12.6148746 C18.8085444,12.4011963 19.1879236,12.4011963 19.4546745,12.6148746 L30.5989366,21.8030448 C30.7589872,21.9395615 30.853832,22.1413689 30.853832,22.3550473 Z M35.809472,18.7403214 L30.853832,14.6507547 L30.853832,6.43007276 C30.853832,6.03832907 30.5337309,5.71781151 30.1424961,5.71781151 L26.8229287,5.71781151 C26.4316939,5.71781151 26.1115928,6.03832907 26.1115928,6.43007276 L26.1115928,10.7392533 L20.8062127,6.36478214 C19.7569923,5.49819762 18.2394757,5.49819762 17.1902553,6.36478214 L2.18699601,18.7403214 C1.88467826,18.9896129 1.84318366,19.4407117 2.09215122,19.7434227 L3.60373997,21.5834309 C3.85270753,21.886142 4.30322025,21.9276905 4.605538,21.6783991 L18.5477213,10.1813154 C18.8085444,9.96763698 19.1879236,9.96763698 19.4546745,10.1813154 L33.3968578,21.6783991 C33.6991755,21.9276905 34.1496882,21.886142 34.3986558,21.5834309 L35.9102445,19.7434227 C36.1592121,19.4347761 36.1117897,18.9896129 35.809472,18.7403214 L35.809472,18.7403214 Z" id="path-1"></path>
    </defs>
    <g id="icon-page---home-(big)" stroke="none" stroke-width="1" fill="none" fill-rule="evenodd">
        <g id="Solid/home" transform="translate(0.000000, 7.000000)">
            <mask id="mask-2" fill="white">
                <use xlink:href="#path-1"></use>
            </mask>
            <use id="Mask" fill="#000000" fill-rule="nonzero" xlink:href="#path-1"></use>
            <g id="Color/Purple" mask="url(#mask-2)" fill="#515151" fill-rule="evenodd">
                <rect id="Purple" x="0" y="0" width="38" height="38"></rect>
            </g>
        </g>
    </g>
</svg>